<?xml version="1.0" encoding="UTF-8"?>
<svg id="Layer_1" data-name="Layer 1" xmlns="http://www.w3.org/2000/svg" viewBox="0 0 1031.3 256">
  <defs>
    <style>
      .cls-1 {
        fill: #0f172a;
        stroke-width: 0px;
      }

      .cls-2 {
        stroke: #0f172a;
      }

      .cls-2, .cls-3 {
        stroke-width: 18px;
      }

      .cls-2, .cls-3, .cls-4, .cls-5 {
        fill: none;
        stroke-linecap: round;
        stroke-linejoin: round;
      }

      .cls-3, .cls-4 {
        stroke: #22c55e;
      }

      .cls-4, .cls-5 {
        stroke-width: 13px;
      }

      .cls-5 {
        stroke: #fff;
      }
    </style>
  </defs>
  <g>
    <rect class="cls-1" x="54.42" y="39.19" width="177.62" height="177.62" rx="31.72" ry="31.72"/>
    <path class="cls-5" d="M169.72,85.81c-20.19-11.94-46.76-8.36-62.89,9.7-18.19,20.37-16.22,51.45,4.41,69.42,16.46,14.33,40.11,16.14,58.38,5.4"/>
    <path class="cls-5" d="M129.85,128l12.69,22.2,12.69-31.45,12.69,25.37"/>
    <path class="cls-4" d="M167.91,144.13l25.37-41.5"/>
  </g>
  <path class="cls-2" d="M694.21,137.62l26.22,45.88,26.22-64.99,26.22,52.43"/>
  <path class="cls-3" d="M772.85,170.94l45.6-74.58"/>
  <path class="cls-1" d="M397.58,159.64c-3.38,5.47-7.85,9.98-13.41,13.54-7.22,4.63-15.46,6.94-24.7,6.94-13.56,0-24.74-4.56-33.55-13.68-8.81-9.12-13.21-20.65-13.21-34.59s4.4-25.47,13.21-34.59c8.81-9.12,19.98-13.68,33.55-13.68,9.24,0,17.49,2.31,24.7,6.94,4.36,2.78,8.04,6.16,11.06,10.13l16.56-13.57c-3.42-4.23-7.44-8.02-12.03-11.38-11.54-8.43-24.9-12.65-40.11-12.65-19.76,0-36.14,6.53-49.13,19.58-12.99,13.05-19.48,29.47-19.48,49.23s6.49,36.18,19.48,49.23c12.99,13.05,29.37,19.57,49.13,19.57,15.21,0,28.57-4.21,40.11-12.64,5.75-4.2,10.59-9.09,14.52-14.67l-16.7-13.69Z"/>
  <path class="cls-1" d="M472.2,109.61c1.97,0,3.51.14,4.64.42v16.16c-1.88-.19-3.47-.28-4.78-.28-7.68,0-13.87,2.27-18.55,6.81-4.69,4.54-7.03,11.36-7.03,20.45v35.41h-15.88v-77.28h15.88v15.32c4.87-11.33,13.44-17,25.71-17Z"/>
  <path class="cls-1" d="M528.2,109.61c12.27,0,22.04,4.24,29.3,12.72,7.26,8.48,10.51,19.13,9.77,31.97h-62.81c.65,6.93,3.18,12.34,7.59,16.23,4.4,3.89,9.93,5.83,16.58,5.83,4.68,0,8.85-.98,12.51-2.95s6.37-4.82,8.15-8.57h16.44c-2.9,8.34-7.68,14.66-14.33,18.97-6.65,4.31-14.29,6.46-22.9,6.46-11.71,0-21.34-3.77-28.88-11.31-7.54-7.54-11.31-17.17-11.31-28.88s3.75-21.38,11.24-29.02c7.49-7.63,17.05-11.45,28.67-11.45ZM528.2,123.38c-5.9,0-10.84,1.66-14.82,4.99-3.98,3.33-6.67,7.66-8.08,13h44.97c-1.22-5.43-3.77-9.79-7.66-13.07-3.89-3.28-8.69-4.92-14.4-4.92Z"/>
  <path class="cls-1" d="M649.38,80.38h15.88v108.2h-15.88v-12.93c-6.46,9.74-15.5,14.61-27.12,14.61-10.4,0-18.95-3.77-25.64-11.31-6.7-7.54-10.05-17.21-10.05-29.02s3.37-21.36,10.12-28.95c6.75-7.59,15.22-11.38,25.43-11.38,11.71,0,20.8,4.97,27.26,14.9v-44.12ZM625.64,175.09c6.84,0,12.51-2.34,17-7.03,4.5-4.68,6.74-10.73,6.74-18.13s-2.25-13.33-6.74-18.06c-4.5-4.73-10.17-7.1-17-7.1s-12.27,2.34-16.58,7.03c-4.31,4.69-6.46,10.73-6.46,18.13s2.15,13.44,6.46,18.13c4.31,4.69,9.84,7.03,16.58,7.03Z"/>
  <path class="cls-1" d="M954.96,188.58h-20.52l-36.39-35.69v35.69h-15.88v-108.2h15.88v64.36l33.44-33.44h20.38l-37.8,36.67,40.89,40.61Z"/>
  <circle class="cls-1" cx="852.56" cy="81.65" r="12.45"/>
  <rect class="cls-1" x="844.62" y="100.01" width="15.88" height="88.57"/>
</svg>